<?xml version="1.0" standalone="no"?>
<!DOCTYPE svg PUBLIC "-//W3C//DTD SVG 20010904//EN"
 "http://www.w3.org/TR/2001/REC-SVG-20010904/DTD/svg10.dtd">
<svg version="1.0" xmlns="http://www.w3.org/2000/svg"
 width="512.000000pt" height="512.000000pt" viewBox="0 0 512.000000 512.000000"
 preserveAspectRatio="xMidYMid meet">
<metadata>
Created by potrace 1.14, written by Peter Selinger 2001-2017
</metadata>
<g transform="translate(0.000000,512.000000) scale(0.100000,-0.100000)"
fill="#000000" stroke="none">
<path d="M2477 4974 c-1 -1 -27 -3 -57 -5 -30 -1 -63 -6 -74 -12 -14 -7 -16
-6 -11 4 5 8 4 10 -4 5 -6 -4 -23 -9 -36 -12 -81 -14 -180 -39 -242 -63 -28
-10 -54 -16 -57 -13 -3 3 -6 0 -6 -6 0 -7 -8 -12 -18 -12 -10 0 -27 -7 -38
-15 -10 -8 -27 -15 -36 -15 -10 0 -18 -5 -18 -10 0 -6 -3 -9 -7 -8 -19 5 -231
-125 -280 -171 -12 -12 -25 -21 -28 -21 -11 0 -194 -188 -242 -250 -55 -71
-123 -181 -172 -279 -16 -34 -30 -62 -30 -64 0 -1 -5 -15 -12 -32 -7 -16 -13
-33 -14 -37 -2 -5 -4 -10 -5 -13 -1 -3 -3 -8 -5 -12 -1 -5 -7 -21 -14 -37 -6
-15 -12 -39 -13 -52 -1 -13 -6 -24 -10 -24 -4 0 -5 -9 -3 -20 2 -11 0 -20 -5
-20 -5 0 -7 -9 -5 -20 2 -11 1 -20 -4 -20 -4 0 -8 -10 -8 -22 -1 -13 -4 -41
-7 -63 -14 -88 -18 -182 -19 -434 -2 -223 -4 -265 -17 -271 -22 -11 -75 -32
-78 -31 -7 3 -156 -77 -215 -116 -70 -45 -215 -183 -277 -262 -19 -24 -40 -50
-47 -56 -7 -7 -9 -15 -6 -19 4 -3 1 -6 -5 -6 -7 0 -12 -7 -12 -15 0 -8 -4 -15
-10 -15 -5 0 -10 -7 -10 -15 0 -8 -3 -15 -7 -15 -5 0 -13 -10 -19 -23 -6 -12
-34 -68 -63 -124 -43 -85 -107 -240 -115 -278 -1 -5 -5 -16 -9 -22 -5 -7 -5
-17 -2 -23 3 -5 2 -10 -3 -10 -5 0 -9 -6 -9 -12 0 -7 -12 -58 -26 -114 -38
-145 -58 -290 -62 -441 l-4 -133 36 -70 c20 -38 39 -70 43 -70 3 0 16 -9 28
-20 12 -12 22 -17 22 -13 0 4 7 -2 15 -13 8 -10 15 -15 15 -10 0 5 6 4 13 -1
23 -19 127 -38 127 -23 0 4 13 5 30 2 19 -3 30 0 30 7 0 7 4 10 9 6 14 -8 81
31 117 69 41 41 76 118 81 176 7 76 12 114 19 145 4 17 7 38 8 48 0 9 4 17 9
17 4 0 5 5 2 10 -3 5 -2 10 3 10 5 0 9 6 9 13 0 21 43 107 53 107 6 0 10 7 10
16 0 39 173 174 243 190 4 1 8 2 10 3 2 2 32 9 65 14 9 1 22 6 29 10 14 9 19
1 22 -35 1 -16 3 -38 4 -50 1 -13 7 -26 12 -30 6 -5 5 -8 -3 -8 -9 0 -10 -5
-4 -17 8 -18 14 -67 16 -130 1 -18 3 -33 6 -33 3 0 6 -8 7 -17 0 -10 3 -36 7
-58 7 -45 16 -107 20 -146 2 -14 6 -31 10 -37 4 -7 5 -12 2 -12 -3 0 -1 -11 4
-24 5 -13 12 -43 15 -67 4 -24 8 -46 10 -49 2 -3 6 -22 9 -43 3 -21 11 -47 16
-58 6 -10 8 -19 6 -19 -3 0 1 -18 9 -40 8 -22 12 -40 10 -40 -2 0 3 -16 11
-35 8 -19 14 -37 13 -40 -1 -12 45 -124 82 -200 46 -94 104 -166 162 -199 38
-22 56 -25 207 -30 91 -3 179 -8 195 -10 51 -8 129 -26 150 -35 11 -5 38 -17
60 -27 36 -15 112 -61 125 -74 10 -10 65 -41 83 -47 9 -3 17 -9 17 -14 0 -5 8
-9 18 -9 10 0 22 -4 28 -8 11 -9 66 -28 109 -36 17 -4 41 -9 55 -12 35 -7 310
-12 310 -5 0 3 17 5 37 5 21 -1 44 3 51 8 6 6 12 8 12 5 0 -8 102 22 116 34 6
5 13 7 16 4 3 -3 11 1 18 10 7 8 19 15 26 15 8 0 14 5 14 10 0 6 7 10 15 10 8
0 15 3 15 8 0 4 16 18 35 31 19 13 45 32 57 43 84 74 256 108 423 86 69 -9
195 -59 225 -89 50 -50 250 -162 250 -141 0 4 4 2 8 -5 4 -6 21 -14 37 -17 17
-2 30 -5 30 -7 0 -1 14 -2 30 -3 17 -1 35 -4 40 -7 12 -6 169 -3 205 4 53 10
85 21 98 34 8 7 18 11 23 8 5 -4 9 -1 9 4 0 6 5 11 11 11 6 0 16 6 24 13 7 6
25 21 39 31 15 11 41 41 58 68 17 26 36 48 41 48 6 0 8 3 5 6 -3 3 2 28 13 55
21 58 27 152 12 189 -6 14 -20 51 -31 82 -12 31 -40 96 -62 144 -22 47 -40 91
-40 98 0 7 -4 16 -9 21 -15 16 -70 153 -64 159 4 3 2 6 -4 6 -9 0 -27 35 -39
75 -5 19 -49 120 -54 125 -3 3 -6 10 -7 16 -1 7 -13 36 -26 65 -28 63 -42 101
-39 112 1 4 -3 7 -8 7 -6 0 -10 9 -10 20 0 11 -4 20 -10 20 -5 0 -9 3 -9 8 1
4 0 10 -1 15 -1 4 -3 10 -4 15 -1 4 -7 16 -13 27 -6 11 -11 22 -11 25 -2 17
-45 134 -55 148 -5 6 -7 12 -4 12 3 0 0 12 -8 27 -10 20 -11 30 -3 40 6 8 13
11 16 9 2 -3 27 4 56 15 28 11 56 21 61 23 6 1 41 17 79 36 130 63 274 196
350 323 19 31 31 57 28 57 -4 0 -2 4 4 8 27 19 147 312 127 312 -3 0 0 7 7 15
7 8 10 15 7 15 -3 0 -1 15 4 33 18 61 49 282 56 402 9 152 10 474 1 500 -13
43 -42 94 -50 89 -4 -3 -8 0 -8 6 0 19 -43 55 -95 80 -69 34 -170 35 -239 1
-99 -49 -154 -133 -163 -251 -2 -30 -8 -73 -13 -94 -5 -22 -7 -44 -4 -48 3 -4
0 -8 -7 -8 -7 0 -10 -3 -6 -6 3 -4 -2 -28 -13 -55 -10 -27 -16 -49 -13 -49 2
0 -3 -7 -11 -16 -9 -8 -14 -19 -11 -24 3 -4 -2 -11 -11 -14 -9 -4 -14 -9 -11
-12 17 -17 -125 -151 -195 -183 -91 -42 -126 -52 -130 -38 -3 7 -4 110 -4 230
1 119 -2 217 -6 217 -4 0 -3 11 2 24 5 13 7 26 5 28 -3 2 -7 29 -10 59 -7 64
-13 114 -15 114 -1 0 -3 14 -5 30 -2 17 -7 41 -12 55 -4 14 -8 30 -9 35 -1 6
-3 13 -4 18 -1 4 -4 12 -5 17 -1 6 -4 12 -5 15 -1 3 -3 8 -4 13 -8 38 -32 102
-38 102 -4 0 -8 8 -8 19 0 21 -103 226 -141 281 -40 58 -83 115 -94 122 -5 4
-6 8 -2 8 7 0 -200 208 -237 238 -8 6 -20 12 -26 12 -5 0 -10 4 -10 8 0 10
-132 98 -142 94 -5 -1 -8 2 -8 7 0 10 -70 46 -82 43 -5 -1 -8 2 -8 8 0 5 -6
10 -13 10 -7 0 -29 9 -50 20 -20 11 -37 17 -37 13 0 -5 -4 -3 -8 2 -7 10 -120
53 -158 60 -11 2 -20 4 -21 5 -2 2 -7 4 -13 5 -5 1 -12 4 -15 5 -3 1 -14 4
-25 5 -11 1 -22 4 -25 5 -3 1 -9 4 -15 5 -5 1 -11 3 -12 5 -2 1 -23 3 -48 5
-25 1 -45 4 -45 5 0 6 -291 20 -298 14z"/>
</g>
</svg>
